# xmcd
#
# Track frame offsets:
#	150
#	22794
#	46255
#	67713
#	92147
#	116511
#	136837
#	156904
#	175418
#	193529
#
# Disc length: 2808 seconds
#
# Revision: 2
# Processed by: cddbd v1.5.2PL0 Copyright (c) Steve Scherf et al.
# Submitted via: EasyCDDAExtractor 15.3.0.1
#
DISCID=760af60a
DTITLE=Yolandita Monge - 20 Grandes Exitos - CD 1
DYEAR=2010
DGENRE=Latin
TTITLE0=A Pesar Del Tiempo
TTITLE1=El
TTITLE2=Dime Cuando
TTITLE3=Me Sorprendio La Luna
TTITLE4=Fiebre
TTITLE5=Busco Tu Amor
TTITLE6=Tu, Tu, Tu, Tu
TTITLE7=Cuando Miro Tu Foto
TTITLE8=Antes De Ti
TTITLE9=Cuando Nacen Amores
EXTD=
EXTT0=
EXTT1=
EXTT2=
EXTT3=
EXTT4=
EXTT5=
EXTT6=
EXTT7=
EXTT8=
EXTT9=
PLAYORDER=
